<svg xmlns="http://www.w3.org/2000/svg" version="1.1" xmlns:xlink="http://www.w3.org/1999/xlink" xmlns:svgjs="http://svgjs.dev/svgjs" width="1000" height="1000" viewBox="0 0 1000 1000"><rect width="1000" height="1000" fill="#ffffff"></rect><g transform="matrix(0.7,0,0,0.7,150.35714494610892,147.48566801619438)"><svg viewBox="0 0 245 247" data-background-color="#ffffff" preserveAspectRatio="xMidYMid meet" height="1008" width="1000" xmlns="http://www.w3.org/2000/svg" xmlns:xlink="http://www.w3.org/1999/xlink"><g id="tight-bounds" transform="matrix(1,0,0,1,-0.12500072940264317,-0.09999999999999432)"><svg viewBox="0 0 245.2500014605408 247.2" height="247.2" width="245.2500014605408"><g><svg viewBox="0 0 395.52000000000004 398.66480496527544" height="247.2" width="245.2500014605408"><g transform="matrix(1,0,0,1,0,264.1835677758538)"><svg viewBox="0 0 395.52000000000004 134.48123718942162" height="134.48123718942162" width="395.52000000000004"><g id="textblocktransform"><svg viewBox="0 0 395.52000000000004 134.48123718942162" height="134.48123718942162" width="395.52000000000004" id="textblock"><g><svg viewBox="0 0 395.52000000000004 86.39088319088319" height="86.39088319088319" width="395.52000000000004"><g transform="matrix(1,0,0,1,0,0)"><svg width="395.52000000000004" viewBox="0.2800000011920929 -30.959999084472656 168.4600067138672 36.79999923706055" height="86.39088319088319" data-palette-color="#233565"><path d="M23.56-30.48L23.56-30.48Q24.2-30.48 24.32-30L24.32-30 24.36-29.84Q23.2-29.84 22.38-28.36 21.56-26.88 21.16-24.46 20.76-22.04 20.28-18.94 19.8-15.84 19.38-12.6 18.96-9.36 18.04-6.26 17.12-3.16 15.9-0.74 14.68 1.68 12.52 3.16 10.36 4.64 7.4 4.64 4.44 4.64 2.54 2.88 0.64 1.12 0.36-1.4L0.36-1.4Q0.28-2.24 0.28-3.5 0.28-4.76 0.74-6.86 1.2-8.96 2.94-10.72 4.68-12.48 6.92-12.48L6.92-12.48Q7.52-12.48 7.86-12.12 8.2-11.76 8.32-11.04L8.32-11.04Q4.72-11.04 2.64-7.48L2.64-7.48Q1.32-5.16 1.32-2.84L1.32-2.84Q1.32-1.6 1.72-0.32L1.72-0.32Q2.84 3.24 6.96 3.24L6.96 3.24Q9.2 3.24 10.9 1.78 12.6 0.32 13.64-2.14 14.68-4.6 15.44-7.62 16.2-10.64 16.76-13.92 17.32-17.2 17.84-20.12L17.84-20.12Q19.16-27.08 21.08-29.24L21.08-29.24Q17.96-28.16 15.42-25.82 12.88-23.48 12.88-20.72L12.88-20.72Q12.88-19.48 13.72-19.48L13.72-19.48Q13.64-18.92 12.9-18.92 12.16-18.92 11.58-19.52 11-20.12 11-21.24L11-21.24Q11-23.6 13.34-25.82 15.68-28.04 18.58-29.26 21.48-30.48 23.56-30.48ZM26.32-1.36L26.32-1.36Q26.32 1.44 28.12 1.44L28.12 1.44Q29.8 1.44 31.26-1.32 32.72-4.08 32.72-8.28L32.72-8.28Q32.72-10.32 31.98-14.04 31.24-17.76 31.24-18.9 31.24-20.04 31.32-20.4L31.32-20.4Q30.8-19.56 28.32-14.82 25.84-10.08 23.92-7.32L23.92-7.32Q23.76-7.16 23.48-7.22 23.2-7.28 23.02-7.46 22.84-7.64 22.84-7.72 22.84-7.8 22.88-7.84L22.88-7.84Q24.76-10.56 27.26-15.34 29.76-20.12 31.44-22.48 33.12-24.84 34.76-24.84L34.76-24.84Q35.6-24.84 35.6-24.12L35.6-24.12Q35.6-23.64 34.92-22.84L34.92-22.84Q32.76-20.4 32.76-17.84L32.76-17.84Q32.76-16.32 33.92-11.98 35.08-7.64 35.08-5.68L35.08-5.68Q35.08-2.16 33.12 0.3 31.16 2.76 28.68 2.76L28.68 2.76Q25.16 2.76 25.16-1.28L25.16-1.28Q25.16-4.32 27.02-7.64 28.88-10.96 30.76-12.12L30.76-12.12Q31.12-12.36 31.22-11.84 31.32-11.32 31.08-11.16L31.08-11.16Q28.96-9.96 27.4-6.04L27.4-6.04Q26.32-3.28 26.32-1.36ZM44.52 5.84L44.52 5.84Q42.2 5.84 41.1 3.4 40 0.96 40-3.92 40-8.8 41.44-15.48 42.88-22.16 44.82-26.56 46.76-30.96 48.2-30.96L48.2-30.96Q48.88-30.96 48.88-30.16L48.88-30.16Q48.04-28.24 46.76-24.38 45.48-20.52 44.62-17.24 43.76-13.96 43.06-9.56 42.36-5.16 42.36-2.02 42.36 1.12 42.98 2.82 43.6 4.52 44.68 4.52L44.68 4.52Q45.6 4.52 46.44 3.66 47.28 2.8 47.64 1.96L47.64 1.96Q47.84 1.52 48.36 1.72L48.36 1.72Q48.56 1.8 48.46 2.06 48.36 2.32 48.14 2.72 47.92 3.12 47.36 3.96L47.36 3.96Q46.16 5.84 44.52 5.84ZM52.51 0L52.51 0Q49.23 0 49.23-5.16L49.23-5.16Q49.23-8.24 50.75-11.92L50.75-11.92Q52.87-17.08 56.31-18.96L56.31-18.96Q57.79-19.76 59.07-19.76 60.35-19.76 61.09-19.2 61.83-18.64 62.03-18.08L62.03-18.08 62.27-17.56Q62.15-16.88 61.59-16.88L61.59-16.88Q60.95-16.88 60.85-17.18 60.75-17.48 60.63-17.7 60.51-17.92 60.07-18.3 59.63-18.68 59.07-18.68L59.07-18.68Q56.47-18.68 54.35-14L54.35-14Q51.95-8.6 51.95-3.84L51.95-3.84Q51.95-1.44 52.91-1.44L52.91-1.44Q53.67-1.44 55.05-3.14 56.43-4.84 57.95-7.4L57.95-7.4Q60.59-11.8 62.23-15.04L62.23-15.04Q63.59-17.92 65.03-17.92L65.03-17.92Q65.79-17.92 65.79-17L65.79-17Q65.43-16.24 64.87-14.84 64.31-13.44 63.39-9.28 62.47-5.12 62.47-1 62.47 3.12 63.71 3.12L63.71 3.12Q64.19 3.12 64.59 2.7 64.99 2.28 65.31 1.44L65.31 1.44Q65.43 1 65.87 1L65.87 1Q66.03 1 66.11 1.12 66.19 1.24 66.11 1.52 66.03 1.8 65.83 2.3 65.63 2.8 64.97 3.64 64.31 4.48 63.59 4.48L63.59 4.48Q61.91 4.48 61.01 2.28 60.11 0.08 60.11-2.92 60.11-5.92 60.55-8.68L60.55-8.68 60.15-8.68Q55.07 0 52.51 0ZM75.59-11.6Q73.47-7.76 72.29-4.8 71.11-1.84 71.11-1.3 71.11-0.76 70.55-0.76L70.55-0.76Q69.35-0.76 69.35-3.96L69.35-3.96Q69.35-10.32 70.63-16.74 71.91-23.16 73.67-27.02 75.43-30.88 76.95-30.88L76.95-30.88Q77.59-30.88 77.59-30.24L77.59-30.24Q75.47-25.56 74.05-19.56 72.63-13.56 71.67-6.76L71.67-6.76 71.95-6.76Q77.03-19.24 81.91-19.24L81.91-19.24Q83.95-19.24 83.95-17.28L83.95-17.28Q83.67-16.36 83.23-14.86 82.79-13.36 82.07-9.48 81.35-5.6 81.35-2.68L81.35-2.68Q81.35 1.56 82.59 1.56L82.59 1.56Q83.03 1.56 83.47 1.18 83.91 0.8 84.07 0.8L84.07 0.8Q84.63 0.8 84.03 1.68L84.03 1.68Q83.87 1.96 83.33 2.44 82.79 2.92 82.27 2.92L82.27 2.92Q80.71 2.92 79.85 0.74 78.99-1.44 78.99-4.92L78.99-4.92Q78.99-10.8 80.75-17.04L80.75-17.04Q80.83-17.64 80.27-17.56L80.27-17.56Q79.99-17.52 79.71-17.24L79.71-17.24Q77.71-15.44 75.59-11.6ZM100.51 3L100.51 3Q100.99 3 101.41 2.58 101.83 2.16 102.19 1.28L102.19 1.28Q102.23 0.92 102.67 0.92 103.11 0.92 103.01 1.28 102.91 1.64 102.69 2.16 102.47 2.68 101.77 3.54 101.07 4.4 100.35 4.4L100.35 4.4Q98.75 4.4 97.87 2.4L97.87 2.4Q96.95 0.4 96.95-2.54 96.95-5.48 97.39-8.6L97.39-8.6 97.03-8.6Q92.19-0.16 89.59-0.16L89.59-0.16Q86.51-0.16 86.51-4.86 86.51-9.56 88.51-14.24L88.51-14.24Q90.71-19.4 92.39-19.4L92.39-19.4Q93.11-19.4 93.11-18.52L93.11-18.52Q91.43-14.08 90.23-9.88 89.03-5.68 89.03-3.62 89.03-1.56 89.99-1.56L89.99-1.56Q90.67-1.56 92.01-3.2 93.35-4.84 94.75-7.2L94.75-7.2Q97.75-12.28 99.33-15.84 100.91-19.4 102.59-19.4L102.59-19.4Q103.39-19.4 103.39-18.52L103.39-18.52Q100.83-13.44 99.75-6.4L99.75-6.4Q99.31-3.6 99.31-0.92L99.31-0.92Q99.31 3 100.51 3ZM108.87 0L108.87 0Q105.51 0 105.51-5.16L105.51-5.16Q105.51-8.16 107.03-11.76L107.03-11.76Q109.11-16.8 112.51-18.6L112.51-18.6Q113.99-19.4 115.19-19.4 116.39-19.4 117.03-18.98 117.67-18.56 117.87-18.12L117.87-18.12 118.07-17.68Q117.95-17 117.35-17 116.75-17 116.49-17.66 116.23-18.32 115.27-18.32L115.27-18.32Q112.67-18.32 110.63-13.72L110.63-13.72Q108.27-8.52 108.27-3.88L108.27-3.88Q108.27-1.44 109.27-1.44L109.27-1.44Q110.07-1.44 111.61-3.42 113.15-5.4 114.79-8.24L114.79-8.24Q117.03-12.16 118.75-15.4L118.75-15.4Q120.19-21.64 122.25-26.3 124.31-30.96 125.67-30.96L125.67-30.96Q126.35-30.96 126.35-30.28L126.35-30.28Q125.39-28.2 124.09-24.6 122.79-21 121.89-17.74 120.99-14.48 120.25-9.96 119.51-5.44 119.51-1.44L119.51-1.44Q119.51 4.52 122.11 4.52L122.11 4.52Q123.11 4.52 123.97 3.66 124.83 2.8 125.19 1.96L125.19 1.96Q125.39 1.52 125.91 1.72L125.91 1.72Q126.11 1.8 126.07 1.96L126.07 1.96Q125.83 2.48 125.47 3.16 125.11 3.84 124.05 4.84 122.99 5.84 121.91 5.84L121.91 5.84Q117.15 5.84 117.15-3.12L117.15-3.12Q117.15-6.28 117.71-9.88L117.71-9.88 117.19-9.88Q111.55 0 108.87 0ZM128.34 0L128.34 0Q124.98 0 124.98-5.16L124.98-5.16Q124.98-8.16 126.5-11.76L126.5-11.76Q128.58-16.8 131.98-18.6L131.98-18.6Q133.46-19.4 134.66-19.4 135.86-19.4 136.5-18.98 137.14-18.56 137.34-18.12L137.34-18.12 137.54-17.68Q137.42-17 136.82-17 136.22-17 135.96-17.66 135.7-18.32 134.74-18.32L134.74-18.32Q132.14-18.32 130.1-13.72L130.1-13.72Q127.74-8.52 127.74-3.88L127.74-3.88Q127.74-1.44 128.74-1.44L128.74-1.44Q129.54-1.44 131.08-3.42 132.62-5.4 134.26-8.24L134.26-8.24Q136.5-12.16 138.22-15.4L138.22-15.4Q139.66-21.64 141.72-26.3 143.78-30.96 145.14-30.96L145.14-30.96Q145.82-30.96 145.82-30.28L145.82-30.28Q144.86-28.2 143.56-24.6 142.26-21 141.36-17.74 140.46-14.48 139.72-9.96 138.98-5.44 138.98-1.44L138.98-1.44Q138.98 4.52 141.58 4.52L141.58 4.52Q142.58 4.52 143.44 3.66 144.3 2.8 144.66 1.96L144.66 1.96Q144.86 1.52 145.38 1.72L145.38 1.72Q145.58 1.8 145.54 1.96L145.54 1.96Q145.3 2.48 144.94 3.16 144.58 3.84 143.52 4.84 142.46 5.84 141.38 5.84L141.38 5.84Q136.62 5.84 136.62-3.12L136.62-3.12Q136.62-6.28 137.18-9.88L137.18-9.88 136.66-9.88Q131.02 0 128.34 0ZM145.5-3.4L145.5-3.4Q145.5-9.32 146.72-13.96 147.94-18.6 149.82-18.6L149.82-18.6Q150.74-18.6 150.74-17.6L150.74-17.6Q150.34-16.56 149.74-14.84 149.14-13.12 148.16-8.62 147.18-4.12 147.18-0.6L147.18-0.6Q147.18-0.04 146.58-0.04L146.58-0.04Q145.5-0.04 145.5-3.4ZM151.34-23.04L150.86-22.36Q150.02-22.36 150.02-23.96L150.02-23.96Q150.02-24.92 150.54-25.98 151.06-27.04 152.02-27.04L152.02-27.04Q152.82-27.04 152.82-26.12L152.82-26.12Q152.82-25.2 151.34-23.04L151.34-23.04ZM155.9-6.48L156.26-6.48Q161.42-19.24 166.3-19.24L166.3-19.24Q168.34-19.24 168.34-17.28L168.34-17.28Q168.06-16.36 167.62-14.86 167.18-13.36 166.44-9.48 165.7-5.6 165.7-2.68L165.7-2.68Q165.7 1.56 166.94 1.56L166.94 1.56Q167.42 1.56 167.86 1.18 168.3 0.8 168.46 0.8L168.46 0.8Q169.02 0.8 168.46 1.68L168.46 1.68Q168.26 1.96 167.72 2.44 167.18 2.92 166.62 2.92L166.62 2.92Q165.1 2.92 164.24 0.74 163.38-1.44 163.38-4.92L163.38-4.92Q163.38-10.44 165.1-17.04L165.1-17.04Q165.26-17.56 164.78-17.56L164.78-17.56Q164.46-17.56 164.06-17.24L164.06-17.24Q162.14-15.56 160.02-11.68 157.9-7.8 156.7-4.74 155.5-1.68 155.5-1.18 155.5-0.68 154.94-0.68L154.94-0.68Q153.66-0.68 153.66-3.84L153.66-3.84Q153.66-9.8 154.88-14.64 156.1-19.48 157.82-19.48L157.82-19.48Q158.54-19.48 158.54-18.6L158.54-18.6Q156.7-12.64 155.9-6.48L155.9-6.48Z" opacity="1" transform="matrix(1,0,0,1,0,0)" fill="#233565" class="wordmark-text-0" data-fill-palette-color="primary" id="text-0"></path></svg></g></svg></g><g transform="matrix(1,0,0,1,75.54432000000001,106.78569733105412)"><svg viewBox="0 0 244.43136 27.6955398583675" height="27.6955398583675" width="244.43136"><g transform="matrix(1,0,0,1,0,0)"><svg width="244.43136" viewBox="1.4500000476837158 -36.47999954223633 402.40997314453125 45.61000061035156" height="27.6955398583675" data-palette-color="#233565"><path d="M23.88-32.52L22.7-30.23Q22.48-29.85 22.23-29.66 21.98-29.48 21.58-29.48L21.58-29.48Q21.15-29.48 20.59-29.9 20.03-30.33 19.16-30.84 18.3-31.35 17.09-31.78 15.88-32.2 14.15-32.2L14.15-32.2Q12.53-32.2 11.28-31.76 10.03-31.33 9.19-30.58 8.35-29.83 7.93-28.81 7.5-27.8 7.5-26.63L7.5-26.63Q7.5-25.13 8.24-24.14 8.97-23.15 10.19-22.45 11.4-21.75 12.94-21.24 14.48-20.73 16.09-20.18 17.7-19.63 19.24-18.94 20.78-18.25 21.99-17.2 23.2-16.15 23.94-14.63 24.68-13.1 24.68-10.88L24.68-10.88Q24.68-8.53 23.88-6.46 23.08-4.4 21.54-2.88 20-1.35 17.76-0.48 15.53 0.4 12.68 0.4L12.68 0.4Q9.2 0.4 6.34-0.86 3.48-2.13 1.45-4.28L1.45-4.28 2.85-6.58Q3.05-6.85 3.34-7.04 3.63-7.23 3.98-7.23L3.98-7.23Q4.5-7.23 5.18-6.66 5.85-6.1 6.86-5.43 7.88-4.75 9.31-4.19 10.75-3.63 12.83-3.63L12.83-3.63Q14.55-3.63 15.9-4.1 17.25-4.58 18.19-5.44 19.13-6.3 19.63-7.5 20.13-8.7 20.13-10.18L20.13-10.18Q20.13-11.8 19.39-12.84 18.65-13.88 17.45-14.58 16.25-15.28 14.71-15.76 13.18-16.25 11.56-16.76 9.95-17.28 8.41-17.95 6.88-18.63 5.68-19.7 4.48-20.78 3.74-22.39 3-24 3-26.38L3-26.38Q3-28.28 3.74-30.05 4.48-31.83 5.88-33.2 7.28-34.58 9.34-35.4 11.4-36.23 14.08-36.23L14.08-36.23Q17.07-36.23 19.55-35.27 22.03-34.33 23.88-32.52L23.88-32.52ZM40.4-25.73L40.4-25.73Q43.17-25.73 45.41-24.8 47.65-23.88 49.21-22.18 50.77-20.48 51.61-18.06 52.45-15.65 52.45-12.68L52.45-12.68Q52.45-9.68 51.61-7.28 50.77-4.88 49.21-3.18 47.65-1.48 45.41-0.56 43.17 0.35 40.4 0.35L40.4 0.35Q37.62 0.35 35.38-0.56 33.15-1.48 31.57-3.18 30-4.88 29.15-7.28 28.3-9.68 28.3-12.68L28.3-12.68Q28.3-15.65 29.15-18.06 30-20.48 31.57-22.18 33.15-23.88 35.38-24.8 37.62-25.73 40.4-25.73ZM40.4-3.13L40.4-3.13Q44.15-3.13 46-5.64 47.85-8.15 47.85-12.65L47.85-12.65Q47.85-17.18 46-19.7 44.15-22.23 40.4-22.23L40.4-22.23Q38.5-22.23 37.1-21.58 35.7-20.93 34.76-19.7 33.82-18.48 33.36-16.69 32.9-14.9 32.9-12.65L32.9-12.65Q32.9-10.4 33.36-8.63 33.82-6.85 34.76-5.64 35.7-4.42 37.1-3.78 38.5-3.13 40.4-3.13ZM63.42 0L58.95 0 58.95-21.53 56.15-21.85Q55.62-21.98 55.28-22.24 54.95-22.5 54.95-23L54.95-23 54.95-24.83 58.95-24.83 58.95-27.28Q58.95-29.45 59.56-31.14 60.17-32.83 61.31-33.99 62.45-35.15 64.05-35.75 65.65-36.35 67.65-36.35L67.65-36.35Q69.34-36.35 70.8-35.85L70.8-35.85 70.7-33.63Q70.67-33.13 70.27-33.02 69.87-32.93 69.15-32.93L69.15-32.93 68.37-32.93Q67.22-32.93 66.28-32.63 65.34-32.33 64.67-31.65 64-30.98 63.63-29.88 63.27-28.78 63.27-27.15L63.27-27.15 63.27-24.83 70.59-24.83 70.59-21.6 63.42-21.6 63.42 0ZM82.47 0.4L82.47 0.4Q79.47 0.4 77.86-1.28 76.24-2.95 76.24-6.1L76.24-6.1 76.24-21.6 73.19-21.6Q72.79-21.6 72.52-21.84 72.24-22.08 72.24-22.58L72.24-22.58 72.24-24.35 76.39-24.88 77.42-32.7Q77.47-33.08 77.74-33.31 78.02-33.55 78.44-33.55L78.44-33.55 80.69-33.55 80.69-24.83 87.94-24.83 87.94-21.6 80.69-21.6 80.69-6.4Q80.69-4.8 81.47-4.03 82.24-3.25 83.47-3.25L83.47-3.25Q84.17-3.25 84.68-3.44 85.19-3.63 85.57-3.85 85.94-4.08 86.21-4.26 86.47-4.45 86.67-4.45L86.67-4.45Q87.02-4.45 87.29-4.03L87.29-4.03 88.59-1.9Q87.44-0.83 85.82-0.21 84.19 0.4 82.47 0.4ZM98.34 0L90.14-25.33 93.64-25.33Q94.19-25.33 94.54-25.05 94.89-24.78 95.02-24.4L95.02-24.4 99.87-8.1Q100.07-7.2 100.24-6.36 100.42-5.53 100.54-4.67L100.54-4.67Q100.74-5.53 100.99-6.36 101.24-7.2 101.52-8.1L101.52-8.1 106.87-24.5Q106.99-24.88 107.3-25.13 107.62-25.38 108.09-25.38L108.09-25.38 110.02-25.38Q110.52-25.38 110.84-25.13 111.17-24.88 111.29-24.5L111.29-24.5 116.52-8.1Q116.79-7.23 117-6.38 117.22-5.53 117.42-4.7L117.42-4.7Q117.54-5.53 117.74-6.43 117.94-7.33 118.17-8.1L118.17-8.1 123.12-24.4Q123.24-24.8 123.59-25.06 123.94-25.33 124.42-25.33L124.42-25.33 127.77-25.33 119.57 0 116.04 0Q115.39 0 115.14-0.85L115.14-0.85 109.54-18.03Q109.34-18.6 109.22-19.19 109.09-19.78 108.97-20.35L108.97-20.35Q108.84-19.78 108.72-19.18 108.59-18.57 108.39-18L108.39-18 102.72-0.85Q102.44 0 101.69 0L101.69 0 98.34 0ZM150.34-16.2L150.34 0 148.36 0Q147.71 0 147.31-0.2 146.91-0.4 146.79-1.05L146.79-1.05 146.29-3.4Q145.29-2.5 144.34-1.79 143.39-1.07 142.34-0.59 141.29-0.1 140.1 0.15 138.91 0.4 137.46 0.4L137.46 0.4Q135.99 0.4 134.7-0.01 133.41-0.43 132.46-1.25 131.51-2.08 130.95-3.34 130.39-4.6 130.39-6.33L130.39-6.33Q130.39-7.83 131.21-9.21 132.04-10.6 133.88-11.68 135.71-12.75 138.69-13.44 141.66-14.13 145.96-14.23L145.96-14.23 145.96-16.2Q145.96-19.15 144.7-20.66 143.44-22.18 140.96-22.18L140.96-22.18Q139.34-22.18 138.23-21.76 137.11-21.35 136.3-20.84 135.49-20.33 134.9-19.91 134.31-19.5 133.74-19.5L133.74-19.5Q133.29-19.5 132.95-19.74 132.61-19.98 132.41-20.33L132.41-20.33 131.61-21.75Q133.71-23.78 136.14-24.78 138.56-25.78 141.51-25.78L141.51-25.78Q143.64-25.78 145.29-25.08 146.94-24.38 148.06-23.13 149.19-21.88 149.76-20.1 150.34-18.32 150.34-16.2L150.34-16.2ZM138.79-2.73L138.79-2.73Q139.96-2.73 140.94-2.96 141.91-3.2 142.78-3.64 143.64-4.08 144.43-4.7 145.21-5.33 145.96-6.13L145.96-6.13 145.96-11.4Q142.89-11.3 140.74-10.91 138.59-10.53 137.24-9.9 135.89-9.28 135.28-8.43 134.66-7.58 134.66-6.53L134.66-6.53Q134.66-5.53 134.99-4.8 135.31-4.08 135.86-3.61 136.41-3.15 137.16-2.94 137.91-2.73 138.79-2.73ZM161.54 0L157.09 0 157.09-25.33 159.64-25.33Q160.36-25.33 160.64-25.05 160.91-24.78 161.01-24.1L161.01-24.1 161.31-20.15Q162.61-22.8 164.52-24.29 166.44-25.78 169.01-25.78L169.01-25.78Q170.06-25.78 170.91-25.54 171.76-25.3 172.49-24.88L172.49-24.88 171.91-21.55Q171.74-20.93 171.14-20.93L171.14-20.93Q170.79-20.93 170.06-21.16 169.34-21.4 168.04-21.4L168.04-21.4Q165.71-21.4 164.15-20.05 162.59-18.7 161.54-16.13L161.54-16.13 161.54 0ZM187.26-25.73L187.26-25.73Q189.53-25.73 191.46-24.96 193.38-24.2 194.78-22.76 196.18-21.33 196.97-19.21 197.76-17.1 197.76-14.4L197.76-14.4Q197.76-13.35 197.53-13 197.31-12.65 196.68-12.65L196.68-12.65 179.83-12.65Q179.88-10.25 180.48-8.47 181.08-6.7 182.13-5.51 183.18-4.33 184.63-3.74 186.08-3.15 187.88-3.15L187.88-3.15Q189.56-3.15 190.77-3.54 191.98-3.93 192.86-4.38 193.73-4.83 194.32-5.21 194.91-5.6 195.33-5.6L195.33-5.6Q195.88-5.6 196.18-5.18L196.18-5.18 197.43-3.55Q196.61-2.55 195.46-1.81 194.31-1.07 193-0.6 191.68-0.13 190.28 0.11 188.88 0.35 187.51 0.35L187.51 0.35Q184.88 0.35 182.67-0.54 180.46-1.43 178.85-3.14 177.23-4.85 176.33-7.38 175.43-9.9 175.43-13.18L175.43-13.18Q175.43-15.83 176.25-18.13 177.06-20.43 178.58-22.11 180.11-23.8 182.31-24.76 184.51-25.73 187.26-25.73ZM187.36-22.45L187.36-22.45Q184.13-22.45 182.28-20.59 180.43-18.73 179.98-15.43L179.98-15.43 193.76-15.43Q193.76-16.98 193.33-18.26 192.91-19.55 192.08-20.49 191.26-21.43 190.07-21.94 188.88-22.45 187.36-22.45ZM213.78-35.83L235.85-35.83 235.85-31.88 218.65-31.88 218.65-19.98 232.58-19.98 232.58-16.18 218.65-16.18 218.65-3.95 235.85-3.95 235.85 0 213.78 0 213.78-35.83ZM246.58 0L242.13 0 242.13-25.33 244.78-25.33Q245.73-25.33 245.98-24.4L245.98-24.4 246.33-21.65Q247.98-23.48 250.01-24.6 252.05-25.73 254.73-25.73L254.73-25.73Q256.8-25.73 258.39-25.04 259.98-24.35 261.04-23.09 262.1-21.83 262.65-20.05 263.2-18.28 263.2-16.13L263.2-16.13 263.2 0 258.75 0 258.75-16.13Q258.75-19 257.44-20.59 256.13-22.18 253.43-22.18L253.43-22.18Q251.45-22.18 249.74-21.23 248.03-20.28 246.58-18.65L246.58-18.65 246.58 0ZM278.45-25.75L278.45-25.75Q280.1-25.75 281.54-25.39 282.97-25.03 284.15-24.33L284.15-24.33 291.02-24.33 291.02-22.68Q291.02-21.85 289.97-21.63L289.97-21.63 287.1-21.23Q287.95-19.6 287.95-17.6L287.95-17.6Q287.95-15.75 287.24-14.24 286.52-12.73 285.26-11.65 284-10.58 282.26-10 280.52-9.43 278.45-9.43L278.45-9.43Q276.67-9.43 275.1-9.85L275.1-9.85Q274.3-9.35 273.89-8.78 273.47-8.2 273.47-7.65L273.47-7.65Q273.47-6.75 274.2-6.29 274.92-5.83 276.12-5.63 277.32-5.43 278.85-5.38 280.37-5.33 281.96-5.21 283.55-5.1 285.07-4.83 286.6-4.55 287.8-3.93 289-3.3 289.72-2.2 290.45-1.1 290.45 0.65L290.45 0.65Q290.45 2.27 289.64 3.8 288.82 5.33 287.3 6.51 285.77 7.7 283.57 8.41 281.37 9.13 278.6 9.13L278.6 9.13Q275.82 9.13 273.74 8.58 271.65 8.03 270.27 7.1 268.9 6.18 268.21 4.96 267.52 3.75 267.52 2.43L267.52 2.43Q267.52 0.55 268.71-0.76 269.9-2.08 271.97-2.85L271.97-2.85Q270.9-3.35 270.26-4.19 269.62-5.03 269.62-6.43L269.62-6.43Q269.62-6.98 269.82-7.56 270.02-8.15 270.44-8.72 270.85-9.3 271.45-9.83 272.05-10.35 272.85-10.75L272.85-10.75Q270.97-11.8 269.91-13.54 268.85-15.28 268.85-17.6L268.85-17.6Q268.85-19.45 269.56-20.96 270.27-22.48 271.55-23.54 272.82-24.6 274.59-25.18 276.35-25.75 278.45-25.75ZM286.35 1.38L286.35 1.38Q286.35 0.43 285.82-0.15 285.3-0.73 284.4-1.04 283.5-1.35 282.32-1.5 281.15-1.65 279.85-1.71 278.55-1.78 277.2-1.85 275.85-1.93 274.62-2.13L274.62-2.13Q273.2-1.45 272.31-0.48 271.42 0.5 271.42 1.85L271.42 1.85Q271.42 2.7 271.86 3.44 272.3 4.17 273.2 4.71 274.1 5.25 275.46 5.56 276.82 5.88 278.67 5.88L278.67 5.88Q280.47 5.88 281.9 5.55 283.32 5.23 284.31 4.63 285.3 4.03 285.82 3.2 286.35 2.38 286.35 1.38ZM278.45-12.38L278.45-12.38Q279.8-12.38 280.84-12.75 281.87-13.13 282.57-13.8 283.27-14.48 283.62-15.41 283.97-16.35 283.97-17.48L283.97-17.48Q283.97-19.8 282.56-21.18 281.15-22.55 278.45-22.55L278.45-22.55Q275.77-22.55 274.36-21.18 272.95-19.8 272.95-17.48L272.95-17.48Q272.95-16.35 273.31-15.41 273.67-14.48 274.37-13.8 275.07-13.13 276.1-12.75 277.12-12.38 278.45-12.38ZM295.97-25.33L300.42-25.33 300.42 0 295.97 0 295.97-25.33ZM301.42-33.27L301.42-33.27Q301.42-32.63 301.16-32.06 300.9-31.5 300.46-31.06 300.02-30.63 299.45-30.38 298.87-30.13 298.22-30.13L298.22-30.13Q297.57-30.13 297.01-30.38 296.45-30.63 296.01-31.06 295.57-31.5 295.32-32.06 295.07-32.63 295.07-33.27L295.07-33.27Q295.07-33.93 295.32-34.51 295.57-35.1 296.01-35.54 296.45-35.98 297.01-36.23 297.57-36.48 298.22-36.48L298.22-36.48Q298.87-36.48 299.45-36.23 300.02-35.98 300.46-35.54 300.9-35.1 301.16-34.51 301.42-33.93 301.42-33.27ZM312.72 0L308.27 0 308.27-25.33 310.92-25.33Q311.87-25.33 312.12-24.4L312.12-24.4 312.47-21.65Q314.12-23.48 316.16-24.6 318.19-25.73 320.87-25.73L320.87-25.73Q322.94-25.73 324.53-25.04 326.12-24.35 327.18-23.09 328.24-21.83 328.79-20.05 329.34-18.28 329.34-16.13L329.34-16.13 329.34 0 324.89 0 324.89-16.13Q324.89-19 323.58-20.59 322.27-22.18 319.57-22.18L319.57-22.18Q317.59-22.18 315.88-21.23 314.17-20.28 312.72-18.65L312.72-18.65 312.72 0ZM346.09-25.73L346.09-25.73Q348.37-25.73 350.29-24.96 352.22-24.2 353.62-22.76 355.02-21.33 355.8-19.21 356.59-17.1 356.59-14.4L356.59-14.4Q356.59-13.35 356.37-13 356.14-12.65 355.52-12.65L355.52-12.65 338.67-12.65Q338.72-10.25 339.32-8.47 339.92-6.7 340.97-5.51 342.02-4.33 343.47-3.74 344.92-3.15 346.72-3.15L346.72-3.15Q348.39-3.15 349.6-3.54 350.82-3.93 351.69-4.38 352.57-4.83 353.15-5.21 353.74-5.6 354.17-5.6L354.17-5.6Q354.72-5.6 355.02-5.18L355.02-5.18 356.27-3.55Q355.44-2.55 354.29-1.81 353.14-1.07 351.83-0.6 350.52-0.13 349.12 0.11 347.72 0.35 346.34 0.35L346.34 0.35Q343.72 0.35 341.5-0.54 339.29-1.43 337.68-3.14 336.07-4.85 335.17-7.38 334.27-9.9 334.27-13.18L334.27-13.18Q334.27-15.83 335.08-18.13 335.89-20.43 337.42-22.11 338.94-23.8 341.14-24.76 343.34-25.73 346.09-25.73ZM346.19-22.45L346.19-22.45Q342.97-22.45 341.12-20.59 339.27-18.73 338.82-15.43L338.82-15.43 352.59-15.43Q352.59-16.98 352.17-18.26 351.74-19.55 350.92-20.49 350.09-21.43 348.9-21.94 347.72-22.45 346.19-22.45ZM372.29-25.73L372.29-25.73Q374.56-25.73 376.49-24.96 378.41-24.2 379.81-22.76 381.21-21.33 382-19.21 382.79-17.1 382.79-14.4L382.79-14.4Q382.79-13.35 382.56-13 382.34-12.65 381.71-12.65L381.71-12.65 364.86-12.65Q364.91-10.25 365.51-8.47 366.11-6.7 367.16-5.51 368.21-4.33 369.66-3.74 371.11-3.15 372.91-3.15L372.91-3.15Q374.59-3.15 375.8-3.54 377.01-3.93 377.89-4.38 378.76-4.83 379.35-5.21 379.94-5.6 380.36-5.6L380.36-5.6Q380.91-5.6 381.21-5.18L381.21-5.18 382.46-3.55Q381.64-2.55 380.49-1.81 379.34-1.07 378.03-0.6 376.71-0.13 375.31 0.11 373.91 0.35 372.54 0.35L372.54 0.35Q369.91 0.35 367.7-0.54 365.49-1.43 363.88-3.14 362.26-4.85 361.36-7.38 360.46-9.9 360.46-13.18L360.46-13.18Q360.46-15.83 361.28-18.13 362.09-20.43 363.61-22.11 365.14-23.8 367.34-24.76 369.54-25.73 372.29-25.73ZM372.39-22.45L372.39-22.45Q369.16-22.45 367.31-20.59 365.46-18.73 365.01-15.43L365.01-15.43 378.79-15.43Q378.79-16.98 378.36-18.26 377.94-19.55 377.11-20.49 376.29-21.43 375.1-21.94 373.91-22.45 372.39-22.45ZM392.91 0L388.46 0 388.46-25.33 391.01-25.33Q391.74-25.33 392.01-25.05 392.29-24.78 392.39-24.1L392.39-24.1 392.69-20.15Q393.99-22.8 395.9-24.29 397.81-25.78 400.39-25.78L400.39-25.78Q401.44-25.78 402.29-25.54 403.14-25.3 403.86-24.88L403.86-24.88 403.29-21.55Q403.11-20.93 402.51-20.93L402.51-20.93Q402.16-20.93 401.44-21.16 400.71-21.4 399.41-21.4L399.41-21.4Q397.09-21.4 395.52-20.05 393.96-18.7 392.91-16.13L392.91-16.13 392.91 0Z" opacity="1" transform="matrix(1,0,0,1,0,0)" fill="#233565" class="slogan-text-1" data-fill-palette-color="secondary" id="text-1"></path></svg></g></svg></g></svg></g></svg></g><g transform="matrix(1,0,0,1,86.06303025224406,0)"><svg viewBox="0 0 223.39393949551192 223.39393949551192" height="223.39393949551192" width="223.39393949551192"><g><svg></svg></g><g id="icon-0"><svg viewBox="0 0 223.39393949551192 223.39393949551192" height="223.39393949551192" width="223.39393949551192"><g><path d="M0 111.697c0-61.689 50.008-111.697 111.697-111.697 61.689 0 111.697 50.008 111.697 111.697 0 61.689-50.008 111.697-111.697 111.697-61.689 0-111.697-50.008-111.697-111.697zM111.697 215.603c57.386 0 103.906-46.52 103.906-103.906 0-57.386-46.52-103.906-103.906-103.906-57.386 0-103.906 46.52-103.906 103.906 0 57.386 46.52 103.906 103.906 103.906z" data-fill-palette-color="accent" fill="#8bd8bc" stroke="transparent"></path><ellipse rx="110.5800000502784" ry="110.5800000502784" cx="111.69696974775596" cy="111.69696974775596" fill="#8bd8bc" stroke="transparent" stroke-width="0" fill-opacity="1" data-fill-palette-color="accent"></ellipse></g><g transform="matrix(1,0,0,1,50.67184660207141,53.44570722902678)"><svg viewBox="0 0 122.05024629136909 116.50252503745835" height="116.50252503745835" width="122.05024629136909"><g><svg xmlns="http://www.w3.org/2000/svg" xmlns:xlink="http://www.w3.org/1999/xlink" version="1.1" x="0" y="0" viewBox="8.200000762939453 10.100000381469727 83.59999084472656 79.80000305175781" style="enable-background:new 0 0 100 100;" xml:space="preserve" height="116.50252503745835" width="122.05024629136909" class="icon-s-0" data-fill-palette-color="quaternary" id="s-0"><g fill="#ffffff" data-fill-palette-color="quaternary"><g fill="#ffffff" data-fill-palette-color="quaternary"><path d="M87.7 10.1H12.3c-2.3 0-4.1 1.8-4.1 4.1v59.3c0 2.3 1.8 4.1 4.1 4.1H49v10.3H29.4c-0.6 0-1 0.4-1 1s0.4 1 1 1h41.2c0.6 0 1-0.4 1-1s-0.4-1-1-1H51V77.6h36.7c2.3 0 4.1-1.8 4.1-4.1V14.2C91.7 12 89.9 10.1 87.7 10.1zM12.3 12.1h75.3c1.1 0 2.1 0.9 2.1 2.1v50.5H10.3V14.2C10.3 13.1 11.2 12.1 12.3 12.1zM87.7 75.6H12.3c-1.1 0-2.1-0.9-2.1-2.1v-6.8h79.5v6.8C89.7 74.7 88.8 75.6 87.7 75.6z" fill="#ffffff" data-fill-palette-color="quaternary"></path><path d="M39.8 50.4c0.2 0.2 0.5 0.3 0.7 0.3s0.5-0.1 0.7-0.3c0.4-0.4 0.4-1 0-1.4L30.6 38.4l10.6-10.6c0.4-0.4 0.4-1 0-1.4s-1-0.4-1.4 0L28.5 37.7c-0.2 0.2-0.3 0.4-0.3 0.7s0.1 0.5 0.3 0.7L39.8 50.4z" fill="#ffffff" data-fill-palette-color="quaternary"></path><path d="M58.8 50.4c0.2 0.2 0.5 0.3 0.7 0.3s0.5-0.1 0.7-0.3l11.3-11.3c0.2-0.2 0.3-0.4 0.3-0.7s-0.1-0.5-0.3-0.7L60.2 26.4c-0.4-0.4-1-0.4-1.4 0s-0.4 1 0 1.4l10.6 10.6L58.8 49C58.4 49.3 58.4 50 58.8 50.4z" fill="#ffffff" data-fill-palette-color="quaternary"></path><path d="M45.6 50.6c0.1 0 0.2 0 0.3 0 0.4 0 0.8-0.3 1-0.7l7.7-23.5c0.2-0.5-0.1-1.1-0.6-1.3-0.5-0.2-1.1 0.1-1.3 0.6L45 49.4C44.8 49.9 45.1 50.4 45.6 50.6z" fill="#ffffff" data-fill-palette-color="quaternary"></path></g></g></svg></g></svg></g></svg></g></svg></g><g></g></svg></g><defs></defs></svg><rect width="245.2500014605408" height="247.2" fill="none" stroke="none" visibility="hidden"></rect></g></svg></g></svg>